<svg id="eMHPsgY2etS1" xmlns="http://www.w3.org/2000/svg" xmlns:xlink="http://www.w3.org/1999/xlink" viewBox="0 0 131 40" shape-rendering="geometricPrecision" text-rendering="geometricPrecision"><defs><linearGradient id="eMHPsgY2etS2-fill" x1="-12.83168" y1="4.6098" x2="16.6078" y2="-5.5114" spreadMethod="pad" gradientUnits="userSpaceOnUse" gradientTransform="translate(0 0)"><stop id="eMHPsgY2etS2-fill-0" offset="0%" stop-color="#00ccf8"/><stop id="eMHPsgY2etS2-fill-1" offset="100%" stop-color="#da2fa3"/></linearGradient><linearGradient id="eMHPsgY2etS5-fill" x1="35.503284" y1="26.471016" x2="124.445816" y2="23.675884" spreadMethod="pad" gradientUnits="userSpaceOnUse" gradientTransform="translate(0 0)"><stop id="eMHPsgY2etS5-fill-0" offset="0%" stop-color="#da2fa3"/><stop id="eMHPsgY2etS5-fill-1" offset="100%" stop-color="#00ccf8"/></linearGradient></defs><circle r="13.5" transform="translate(17.5 19.5)" fill="url(#eMHPsgY2etS2-fill)"/><path d="M10.4286,15.1351C14.6075,14.0893,18.7766,13.046,22.9559,12c.2193.848.4364,1.6879.6559,2.5371-3.2632.8166-6.5211,1.6321-9.7789,2.4475.0007.0052.0013.0103.0021.0155h10.0878c.0017.0369.0046.0667.0046.0968.0002,2.1909.0013,4.382-.0004,6.5729-.001,1.2235-1.0098,2.2627-2.2476,2.3198-.1205.0056-.2413.009-.362.009-2.6342.0006-5.2684.0009-7.9024,0-.6584-.0002-1.2336-.2197-1.7036-.6731-.4278-.4129-.67-.9192-.7071-1.5129-.0074-.1185-.0097-.2374-.0097-.3561-.0006-1.9376-.0015-3.8751.0013-5.8125.0004-.2017-.0221-.3961-.0746-.5918-.1646-.6127-.3192-1.2278-.4775-1.8422-.0053-.0206-.0085-.0418-.0152-.0749Zm1.1763,4.4925v.1016c0,1.3083-.0002,2.6167.0008,3.9249c0,.0715.0063.1436.0171.2144.1388.905.8776,1.5298,1.8077,1.5298c2.6658,0,5.3317,0,7.9976-.0003.073,0,.1461-.0034.2188-.0087.9514-.0682,1.6698-.8288,1.6698-1.7683c0-1.2928,0-2.5853,0-3.8781v-.1153h-11.7118Zm1.8656-2.024c.0201.0321.0319.0532.0457.0727.2999.4256.6009.8504.8985,1.2776.0348.0499.0689.0698.1306.0693.3591-.0029.7182-.0014,1.0772-.0017.0271,0,.0543-.0038.0848-.0062-.0067-.0173-.0082-.0271-.0134-.0344-.3115-.444-.6225-.8886-.9373-1.3305-.0187-.0263-.0672-.0442-.1023-.0451-.1938-.0043-.3877-.0021-.5815-.0021-.1958,0-.3919,0-.6025,0l.0002.0004Zm5.1327,1.4182c-.0219-.036-.0336-.058-.0477-.0781-.3003-.4262-.6019-.8514-.9003-1.2789-.0334-.0477-.0679-.0627-.1244-.0625-.3627.0023-.7255.0011-1.0882.0013-.0236,0-.0473.0023-.0824.0041.017.0263.0263.0417.0364.0562.2759.3933.5599.7813.8238,1.1823.0945.1435.1977.1858.3634.1794.3331-.013.667-.0039,1.0192-.0039l.0002.0001Zm.6411-1.4182c.0208.0331.0324.0539.046.0735.3003.4259.6019.851.8997,1.2784.0353.0509.0714.068.1317.0675.3562-.0025.7124-.0012,1.0686-.0015.0277,0,.0552-.0034.0911-.0057-.0105-.0212-.0155-.0355-.0237-.0473-.3083-.4395-.6162-.8792-.9275-1.3166-.0188-.0263-.0661-.0457-.1005-.0464-.2065-.0043-.4134-.0021-.6202-.0021-.1832,0-.3665,0-.5652,0v.0002Zm1.8521-3.0594c-.0207-.0214-.0285-.0312-.0378-.0392-.411-.3526-.8217-.7057-1.2346-1.0562-.0208-.0176-.0635-.0251-.0912-.0184-.3694.0896-.738.1828-1.1069.2752-.0135.0034-.0259.0103-.0607.0242.0296.0192.0468.0278.0609.0398.3521.3004.7111.5936,1.0521.9057.1418.1298.2659.1749.457.1153.3104-.0969.6307-.1634.9612-.2464Zm-5.5978,1.4011c-.015-.0195-.0208-.0306-.0295-.0383-.4044-.345-.81-.6885-1.2119-1.0362-.05-.0432-.0889-.0499-.1508-.0338-.3003.0783-.6021.1508-.9031.2258-.0695.0173-.1384.0362-.226.0593.0988.0851.184.1582.2689.2312.327.2808.6533.5624.9824.8407.0286.0243.0804.0455.1138.0376.3818-.0909.7622-.1876,1.1562-.2863Zm.2875-1.5284c.0105.0197.0121.0266.0165.0302.4129.3548.8252.7102,1.241,1.0618.0267.0225.0832.0276.1204.0187.3482-.0834.6951-.1714,1.0423-.2586.0287-.0071.0564-.0173.0966-.0297-.411-.3519-.8124-.6908-1.2068-1.0371-.0831-.0729-.156-.0875-.2551-.0511-.0677.025-.1408.0359-.2115.0537-.2787.0701-.5574.1401-.8434.2123v-.0002Zm-4.1766,4.5993h1.2055c-.0008-.0114.0009-.0188-.0019-.0229-.3169-.4515-.6338-.903-.9524-1.3536-.0122-.0173-.0384-.0329-.0592-.0344-.0622-.0045-.125-.0017-.1918-.0017v1.4126h-.0002Zm-.0863-2.076c.3971-.0995.7848-.1966,1.1977-.3001-.0355-.0259-.0542-.0376-.0708-.0518-.3807-.3244-.7612-.649-1.1414-.9737-.127-.1084-.1726-.1131-.336-.0278.1161.448.2323.8972.3505,1.3536v-.0002Zm10.6057.6668c.3116.4423.6176.8675.9116,1.3006.0733.108.1519.1351.2701.1034v-1.4042h-1.1817v.0002Zm.3837-4.8745c-.3823.0962-.7538.1895-1.1255.2829l-.0088.0266c.0164.01.0344.0181.0487.0303.3782.3221.7598.6402,1.1311.9697.0981.0869.1819.1189.3052.0471-.1159-.4483-.2327-.9-.3509-1.3568l.0002.0002Z" fill="#fff"/><path d="M16.3951,20.7748c.0201.0094.0489.0205.0756.0355.8027.4553,1.6053.9109,2.4078,1.3664.1457.0826.2913.1654.4368.2485.1099.0629.1103.1468-.001.2101-.8159.4641-1.6322.9275-2.4482,1.391-.132.075-.2635.1505-.3962.2243-.1137.0633-.1872.0238-.1872-.1026-.0006-1.0799,0-2.1599-.0008-3.2399c0-.071.0208-.1222.1132-.1333Z" fill="#fff"/><path d="M96.6953,21v-6.399h4.6397v6.399h-4.6397Zm-5.4895,0l2.8079-6.399h-5.075L86.7685,21h4.4373Zm-5.1156,2h4.2381l-3.0716,7h-3.654l-2.9266-7h4.4142l.495,1.4886L86.0902,23Zm-1.6649-2l-2.1276-6.399h-5.133L79.84,21h4.5853Zm-8.2469,0c-.1462-1.0326-.4745-1.9766-.985-2.832-.7154-1.1987-1.7014-2.146-2.958-2.842-1.2374-.696-2.6584-1.044-4.263-1.044s-3.0354.348-4.292,1.044c-1.2374.696-2.2234,1.6433-2.958,2.842-.5105.8554-.8388,1.7994-.985,2.832h4.7785c.0714-.272.1699-.5297.2955-.773.3093-.6187.7346-1.102,1.276-1.45.5606-.348,1.189-.522,1.885-.522s1.3146.174,1.856.522c.5413.348.9666.8313,1.276,1.45.1256.2433.2241.501.2955.773h4.7785Zm.0616,2h-4.7323c-.0583.4887-.1927.937-.4033,1.345-.3094.5993-.7347,1.073-1.276,1.421-.5414.348-1.16.522-1.856.522s-1.3244-.174-1.885-.522c-.5414-.348-.9667-.8217-1.276-1.421-.2106-.408-.345-.8563-.4033-1.345h-4.7324c.0945,1.2584.4434,2.3931,1.0467,3.404.7346,1.1987,1.7206,2.146,2.958,2.842c1.2566.696,2.6873,1.044,4.292,1.044s3.0256-.348,4.263-1.044c1.2566-.696,2.2426-1.6433,2.958-2.842.6033-1.0109.9521-2.1456,1.0466-3.404Zm20.4553,0h4.6397v7h-4.6397v-7Zm11.376171,3.288l3.299425-3.287999L104.158,26.404v3.596l16.576071.000003L120.688,23h-3.114034v3.288h-9.502495Zm0-8.033l9.502495-.087L114.055862,21L120.688,18.168v-3.616465L104.303,14.505v6.404435h3.768471v-2.654435ZM99.0153,11.556c-.87,0-1.5563-.203-2.059-.609-.4833-.4253-.725-1.02467-.725-1.798c0-.696.2513-1.26634.754-1.711s1.1793-.667,2.03-.667c.87,0,1.5467.21266,2.0297.638.484.406.725.986.725,1.74c0,.71533-.251,1.2953-.754,1.74-.483.4447-1.15.667-2.0007.667ZM35.7554,30v-20.3h4.408l5.8167,9.4664L51.8794,9.7h4.234v20.3h-4.785v-6.322c0-1.74.0387-3.306.116-4.698.0283-.4071.0615-.8134.0997-1.2189L46.8334,25.07h-1.914l-4.5922-7.2267c.0267.3283.0495.6589.0682.9917.0967,1.3533.145,2.9677.145,4.843v6.322h-4.785Z" transform="translate(-.715278-.134635)" clip-rule="evenodd" fill="url(#eMHPsgY2etS5-fill)" fill-rule="evenodd"/></svg>
